<?xml version="1.0" encoding="utf-8"?>
<!-- Generator: Adobe Illustrator 25.2.1, SVG Export Plug-In . SVG Version: 6.00 Build 0)  -->
<svg version="1.1" id="Layer_1" xmlns="http://www.w3.org/2000/svg" xmlns:xlink="http://www.w3.org/1999/xlink" x="0px" y="0px"
	 viewBox="0 0 3000 3000" style="enable-background:new 0 0 3000 3000;" xml:space="preserve">
<style type="text/css">
	.st0{fill:#F9CDE0;}
	.st1{fill:#6D6D6D;}
	.st2{font-family:'SnellBT-Regular';}
	.st3{font-size:937.8461px;}
	.st4{font-family:'Manifest-Light';}
	.st5{font-size:285.2639px;}
</style>
<g>
	<path class="st0" d="M2450.74,1365.89c39.05-101.09,128.84-335.49,257.1-343.75c69.6,4.7,107.06,69.29,69.51,122.23
		C2705.09,1241.81,2560.3,1190.88,2450.74,1365.89z"/>
	<path class="st0" d="M2459.79,1428.8c5.2,4.25,14.65,11.13,27.81,15.87c53.6,19.34,103.22-20.31,127.84,2.69
		c1.25,1.17,9.33,8.72,8.86,18.42c0,0-0.24,11.48-15.59,21.1C2568.43,1512.11,2488.2,1471.24,2459.79,1428.8z"/>
	<path class="st0" d="M2453.72,1407.18c52.71-55.49,157.36-139.63,221.76-111.03c33.9,21.54,32.64,63.91-2.03,77.86
		C2598.85,1401.51,2555.14,1325.6,2453.72,1407.18z"/>
</g>
<g>
	<path class="st0" d="M549.26,1365.89c-39.05-101.09-128.84-335.49-257.1-343.75c-69.6,4.7-107.06,69.29-69.51,122.23
		C294.91,1241.81,439.7,1190.88,549.26,1365.89z"/>
	<path class="st0" d="M540.21,1428.8c-5.2,4.25-14.65,11.13-27.81,15.87c-53.6,19.34-103.22-20.31-127.84,2.69
		c-1.25,1.17-9.33,8.72-8.86,18.42c0,0,0.24,11.48,15.59,21.1C431.57,1512.11,511.8,1471.24,540.21,1428.8z"/>
	<path class="st0" d="M546.28,1407.18c-52.71-55.49-157.36-139.63-221.76-111.03c-33.9,21.54-32.64,63.91,2.03,77.86
		C401.15,1401.51,444.86,1325.6,546.28,1407.18z"/>
</g>
<path class="st0" d="M2450.74,1992.46"/>
<text transform="matrix(1 0 0 1 679.1593 1663.5251)" class="st1 st2 st3">Belle</text>
<g>
	<text transform="matrix(1 0 0 1 967.2521 1985.6433)" class="st1 st4 st5">B</text>
	<text transform="matrix(1 0 0 1 1151.1691 1985.6433)" class="st1 st4 st5">R</text>
	<text transform="matrix(1 0 0 1 1335.09 1985.6433)" class="st1 st4 st5">I</text>
	<text transform="matrix(1 0 0 1 1922.3673 1985.6433)" class="st1 st4 st5">S</text>
	<text transform="matrix(1 0 0 1 1436.8575 1985.6433)" class="st1 st4 st5">D</text>
	<text transform="matrix(1 0 0 1 1583.588 1985.6433)" class="st1 st4 st5">A</text>
	<text transform="matrix(1 0 0 1 1779.7404 1985.6433)" class="st1 st4 st5">L</text>
</g>
<g>
	<path class="st0" d="M2696.55,780.17c-108.91-16.81-185.34,79-286.21,95.57c-43.02,7.07-95.82,2.82-125.09-33.36
		c-4.73-5.84-8.37-12.11-10.88-18.63c23.53-14.54,37.87-36.61,28.59-68.91c17.13-3.65,35.87,4.96,41.42,25.61
		c0.32,1.19,5.15-0.05,4.89-1.31c-5.48-26.9-26.46-33.22-47.37-27.7c-0.91-2.73-1.92-5.51-3.16-8.38
		c-14.47-33.44-55.67-35.56-84.76-21.68c-25.15,12-52.11,42.26-16.88,60.51c3.06,1.58,13.15-3.26,11.52-4.17
		c-45.09-25.12,27.9-82.6,62.81-38.31c5.17,6.57,8.71,13.59,10.89,20.72c-15.55,9.86-27.81,25.57-28.58,42.58
		c-0.37,8.28,0.36,15.78,1.95,22.6c-1.48,0.84-2.96,1.68-4.55,2.42c-31.7,14.73-71.96,14.15-107.37,11.6
		c5.61-6.9,9.92-14.77,12.23-23.78c0.41-1.59-3.5-0.74-3.97,0.48c-3.46,9.07-9.26,16.56-16.52,22.67c-1.83-0.15-3.67-0.3-5.48-0.45
		c-42.86-3.59-76.94-15.63-115.33-35.28c-111.52-57.06-225.96-161.08-358.88-154.24c-13.05,0.67-25.51,3.11-37.3,7.02
		c-10.71-1.51-21.48-2.15-32.29-1.61c-26.07,1.28-72.72,10.81-86.24,37.41c-13.52-26.6-60.17-36.12-86.24-37.41
		c-10.8-0.53-21.58,0.1-32.29,1.61c-11.79-3.91-24.25-6.35-37.31-7.02c-132.92-6.84-247.36,97.18-358.88,154.24
		c-38.39,19.64-72.47,31.69-115.33,35.28c-1.8,0.15-3.64,0.3-5.48,0.45c-7.27-6.11-13.06-13.59-16.52-22.67
		c-0.47-1.21-4.37-2.07-3.97-0.48c2.31,9.01,6.62,16.88,12.23,23.78c-35.4,2.54-75.67,3.13-107.37-11.6
		c-1.59-0.74-3.07-1.58-4.55-2.42c1.59-6.83,2.32-14.32,1.95-22.6c-0.76-17.01-13.03-32.73-28.57-42.58
		c2.17-7.13,5.71-14.15,10.88-20.72c34.9-44.29,107.9,13.19,62.8,38.31c-1.63,0.91,8.46,5.75,11.52,4.17
		c35.23-18.25,8.27-48.51-16.88-60.51c-29.1-13.88-70.3-11.76-84.77,21.68c-1.24,2.87-2.25,5.65-3.16,8.38
		c-20.91-5.51-41.89,0.8-47.36,27.7c-0.26,1.26,4.57,2.5,4.89,1.31c5.55-20.65,24.29-29.26,41.42-25.61
		c-9.27,32.3,5.07,54.37,28.59,68.91c-2.52,6.52-6.15,12.78-10.88,18.63c-29.27,36.18-82.07,40.43-125.09,33.36
		c-100.87-16.57-177.3-112.39-286.21-95.57c-38.73,5.98-100.32,28.22-97.68,77.65c2.19,41.15,38.27,69.91,78.21,70.66
		c32.35,0.6,59.42-35.44,32.9-60.59c-13.51-12.81-39.99-17.62-39.72,6.15c0.02,1.77,6.25,3.3,6.52,1.75
		c4.48-26.05,41.34-1.26,27.66,21.35c-21.48,35.51-75.07,18.32-81.3-20.31c-9.31-57.73,52.22-88.02,101.61-89.95
		c97.65-3.81,167.57,81.76,261.33,96.34c50.41,7.84,130.51,2.79,149.3-50.93c21.53,9.11,46.89,13.77,68.61,15.37
		c17.94,1.32,36.05,1.61,54.1,0.79c21.52,18.74,54.38,27.2,81.76,26.22c61.64-2.2,116.52-32.65,168.21-63.69
		c62.32-37.43,123.51-79.51,188.74-111.74c27.41-13.54,56.46-27.11,86.9-32.28c18.6,8.05,34.79,22.02,46.66,44.16
		c21.96,40.99,33.51,106.75-11.7,137.89c-31.54,21.72-79.95,22.4-102.06-14.08c-5.87-9.68-10.11-21.8-4.46-32.76
		c3.2-6.21,6.99-13.23,13.19-16.92c4.02-2.38,25.26-14.42,23.83,3.74c-0.17,2.13,7.91,3.83,8.15,2.18
		c2.64-18.04-19.58-20.2-32.89-16.86c-29.37,7.36-40.53,37.07-23.01,61.67c34.2,48,115.72,49.56,151.98,5
		c26.96-33.14,20.62-92.43-2.45-126.19c-14.41-21.07-32.83-38.04-54.29-49.54c31.83-2.44,80.4,4.41,93.25,35.91
		c-0.67,3.81-0.77,7.89-0.12,12.28c0.16,1.06,2.53,0.6,3.33-0.22c0.81,0.82,3.18,1.28,3.33,0.22c0.65-4.39,0.56-8.47-0.12-12.28
		c12.84-31.5,61.42-38.35,93.24-35.91c-21.45,11.51-39.88,28.47-54.28,49.54c-23.08,33.75-29.41,93.04-2.46,126.19
		c36.26,44.57,117.77,43,151.97-5c17.53-24.59,6.37-54.31-23-61.67c-13.31-3.34-35.53-1.18-32.89,16.86
		c0.24,1.65,8.31-0.05,8.15-2.18c-1.43-18.16,19.82-6.12,23.83-3.74c6.2,3.68,9.99,10.71,13.19,16.92
		c5.66,10.97,1.42,23.08-4.46,32.76c-22.11,36.48-70.52,35.8-102.06,14.08c-45.21-31.13-33.66-96.9-11.7-137.89
		c11.86-22.14,28.05-36.11,46.66-44.16c30.44,5.17,59.49,18.74,86.9,32.28c65.23,32.22,126.42,74.31,188.74,111.74
		c51.69,31.04,106.57,61.49,168.21,63.69c27.38,0.98,60.24-7.48,81.76-26.22c18.05,0.81,36.15,0.53,54.1-0.79
		c21.72-1.6,47.09-6.26,68.61-15.37c18.8,53.72,98.89,58.77,149.3,50.93c93.76-14.58,163.69-100.15,261.33-96.34
		c49.39,1.93,110.92,32.23,101.61,89.95c-6.23,38.64-59.82,55.82-81.3,20.31c-13.68-22.61,23.17-47.41,27.66-21.35
		c0.27,1.55,6.5,0.02,6.52-1.75c0.27-23.77-26.21-18.97-39.72-6.15c-26.52,25.15,0.55,61.19,32.9,60.59
		c39.94-0.74,76.02-29.5,78.2-70.66C2796.88,808.39,2735.29,786.16,2696.55,780.17z M728.72,812.69
		c-11.3-12.96-15.86-30.08-12.46-47.06c3.04,3.16,5.71,6.91,7.76,11.38C729.44,788.79,730.85,800.98,728.72,812.69z M1244.79,711.84
		c-65.39,37.68-128.45,80.97-195.7,115.23c-31.4,16-66.28,32.83-102.11,34.65c-20.48,1.04-47.73-2.68-69.01-14.04
		c13.86-1.03,27.67-2.72,41.31-5.11c44.96-7.87,84.8-30.43,124.01-53.06c62-35.79,121.89-77.07,188.15-104.84
		c38.75-16.23,88.44-31.55,131.43-25.34C1320.92,669.2,1280.54,691.23,1244.79,711.84z M2053.02,861.72
		c-35.83-1.82-70.71-18.65-102.11-34.65c-67.24-34.26-130.31-77.54-195.7-115.23c-35.76-20.61-76.14-42.64-118.09-52.52
		c42.98-6.21,92.68,9.11,131.42,25.34c66.27,27.77,126.15,69.05,188.15,104.84c39.21,22.63,79.04,45.19,124.01,53.06
		c13.65,2.39,27.45,4.07,41.31,5.11C2100.75,859.04,2073.5,862.76,2053.02,861.72z M2271.28,812.69
		c-2.12-11.72-0.71-23.91,4.69-35.68c2.05-4.47,4.72-8.22,7.76-11.38C2287.14,782.61,2282.57,799.74,2271.28,812.69z"/>
</g>
<g>
	<path class="st0" d="M303.03,2163.95c108.91,16.81,185.34-79,286.21-95.57c43.02-7.07,95.82-2.82,125.09,33.36
		c4.73,5.84,8.37,12.11,10.88,18.63c-23.53,14.54-37.87,36.61-28.59,68.91c-17.13,3.65-35.87-4.96-41.42-25.61
		c-0.32-1.19-5.15,0.05-4.89,1.31c5.48,26.9,26.46,33.22,47.37,27.7c0.91,2.73,1.92,5.51,3.16,8.38
		c14.47,33.44,55.67,35.56,84.76,21.68c25.15-12,52.11-42.26,16.88-60.51c-3.06-1.58-13.15,3.26-11.52,4.17
		c45.09,25.12-27.9,82.6-62.81,38.31c-5.17-6.57-8.71-13.59-10.89-20.72c15.55-9.86,27.81-25.57,28.58-42.58
		c0.37-8.28-0.36-15.78-1.95-22.6c1.48-0.84,2.96-1.68,4.55-2.42c31.7-14.73,71.96-14.15,107.37-11.6
		c-5.61,6.9-9.92,14.77-12.23,23.77c-0.41,1.59,3.5,0.74,3.97-0.48c3.46-9.07,9.26-16.56,16.52-22.67c1.84,0.15,3.67,0.3,5.48,0.45
		c42.86,3.59,76.94,15.63,115.33,35.28c111.52,57.06,225.96,161.08,358.88,154.24c13.05-0.67,25.51-3.11,37.3-7.02
		c10.71,1.51,21.48,2.15,32.29,1.61c26.07-1.28,72.72-10.81,86.24-37.41c13.52,26.6,60.17,36.12,86.24,37.41
		c10.8,0.53,21.58-0.1,32.29-1.61c11.79,3.91,24.25,6.35,37.31,7.02c132.92,6.84,247.36-97.18,358.88-154.24
		c38.39-19.64,72.47-31.69,115.33-35.28c1.8-0.15,3.64-0.3,5.48-0.45c7.27,6.11,13.06,13.59,16.52,22.67
		c0.47,1.21,4.37,2.07,3.97,0.48c-2.31-9.01-6.62-16.88-12.23-23.77c35.4-2.54,75.67-3.13,107.37,11.6
		c1.59,0.74,3.07,1.58,4.55,2.42c-1.59,6.83-2.32,14.32-1.95,22.6c0.76,17.01,13.03,32.73,28.57,42.58
		c-2.17,7.13-5.71,14.15-10.88,20.72c-34.9,44.29-107.9-13.19-62.8-38.31c1.63-0.91-8.46-5.75-11.52-4.17
		c-35.23,18.25-8.27,48.51,16.88,60.51c29.1,13.88,70.3,11.76,84.77-21.68c1.24-2.87,2.25-5.65,3.16-8.38
		c20.91,5.51,41.89-0.8,47.36-27.7c0.26-1.26-4.57-2.5-4.89-1.31c-5.55,20.65-24.29,29.26-41.42,25.61
		c9.27-32.3-5.07-54.37-28.59-68.91c2.52-6.52,6.15-12.78,10.88-18.63c29.27-36.18,82.07-40.43,125.09-33.36
		c100.87,16.57,177.3,112.39,286.21,95.57c38.73-5.98,100.32-28.22,97.68-77.65c-2.19-41.15-38.26-69.91-78.21-70.66
		c-32.35-0.6-59.42,35.44-32.9,60.59c13.51,12.81,39.99,17.62,39.72-6.15c-0.02-1.77-6.25-3.3-6.52-1.75
		c-4.48,26.05-41.34,1.26-27.66-21.35c21.48-35.51,75.07-18.32,81.3,20.31c9.31,57.73-52.22,88.02-101.61,89.95
		c-97.65,3.81-167.57-81.76-261.33-96.34c-50.41-7.84-130.51-2.79-149.3,50.93c-21.53-9.11-46.89-13.77-68.61-15.37
		c-17.94-1.32-36.05-1.61-54.1-0.79c-21.52-18.74-54.38-27.2-81.76-26.22c-61.64,2.2-116.52,32.65-168.21,63.69
		c-62.32,37.43-123.51,79.51-188.74,111.74c-27.41,13.54-56.46,27.11-86.9,32.29c-18.6-8.05-34.79-22.02-46.66-44.16
		c-21.96-40.99-33.51-106.75,11.7-137.89c31.54-21.72,79.95-22.4,102.06,14.08c5.87,9.68,10.11,21.8,4.46,32.76
		c-3.2,6.21-6.99,13.23-13.19,16.92c-4.02,2.38-25.26,14.42-23.83-3.74c0.17-2.13-7.91-3.83-8.15-2.18
		c-2.64,18.04,19.58,20.2,32.89,16.86c29.37-7.36,40.53-37.07,23.01-61.67c-34.2-48-115.72-49.56-151.98-5
		c-26.96,33.14-20.62,92.43,2.45,126.19c14.41,21.07,32.83,38.04,54.29,49.54c-31.83,2.44-80.4-4.41-93.25-35.91
		c0.67-3.81,0.77-7.89,0.12-12.28c-0.16-1.06-2.53-0.6-3.33,0.22c-0.81-0.82-3.18-1.28-3.33-0.22c-0.65,4.39-0.56,8.47,0.12,12.28
		c-12.84,31.5-61.42,38.34-93.24,35.91c21.45-11.51,39.88-28.47,54.28-49.54c23.08-33.75,29.41-93.04,2.46-126.19
		c-36.26-44.57-117.77-43-151.97,5c-17.53,24.59-6.37,54.31,23,61.67c13.31,3.34,35.53,1.18,32.89-16.86
		c-0.24-1.65-8.31,0.05-8.15,2.18c1.43,18.16-19.82,6.12-23.83,3.74c-6.2-3.68-9.99-10.71-13.19-16.92
		c-5.66-10.97-1.42-23.08,4.46-32.76c22.11-36.48,70.52-35.8,102.06-14.08c45.21,31.13,33.66,96.9,11.7,137.89
		c-11.86,22.14-28.05,36.11-46.66,44.16c-30.44-5.17-59.49-18.74-86.9-32.29c-65.23-32.22-126.42-74.31-188.74-111.74
		c-51.69-31.04-106.57-61.49-168.21-63.69c-27.38-0.98-60.24,7.48-81.76,26.22c-18.05-0.81-36.15-0.53-54.1,0.79
		c-21.72,1.6-47.09,6.26-68.61,15.37c-18.8-53.72-98.89-58.77-149.3-50.93c-93.76,14.58-163.69,100.15-261.33,96.34
		c-49.39-1.93-110.92-32.23-101.61-89.95c6.23-38.64,59.82-55.82,81.3-20.31c13.68,22.61-23.17,47.41-27.66,21.35
		c-0.27-1.55-6.5-0.02-6.52,1.75c-0.27,23.77,26.21,18.97,39.72,6.15c26.52-25.15-0.55-61.19-32.9-60.59
		c-39.94,0.74-76.02,29.5-78.2,70.66C202.71,2135.74,264.3,2157.97,303.03,2163.95z M2270.86,2131.43
		c11.3,12.96,15.86,30.08,12.46,47.06c-3.04-3.16-5.71-6.91-7.76-11.38C2270.15,2155.34,2268.74,2143.15,2270.86,2131.43z
		 M1754.8,2232.29c65.39-37.68,128.45-80.97,195.7-115.23c31.4-16,66.28-32.83,102.11-34.65c20.48-1.04,47.73,2.68,69.01,14.04
		c-13.86,1.03-27.67,2.72-41.31,5.11c-44.96,7.87-84.8,30.43-124.01,53.06c-62,35.79-121.89,77.07-188.15,104.84
		c-38.75,16.23-88.44,31.55-131.43,25.34C1678.66,2274.93,1719.04,2252.89,1754.8,2232.29z M946.56,2082.41
		c35.83,1.82,70.71,18.65,102.11,34.65c67.24,34.26,130.31,77.54,195.69,115.23c35.76,20.61,76.14,42.64,118.09,52.52
		c-42.98,6.21-92.68-9.11-131.42-25.34c-66.27-27.77-126.15-69.05-188.15-104.84c-39.21-22.63-79.04-45.19-124.01-53.06
		c-13.65-2.39-27.45-4.07-41.31-5.11C898.84,2085.09,926.09,2081.37,946.56,2082.41z M728.31,2131.43
		c2.12,11.72,0.71,23.91-4.69,35.68c-2.05,4.47-4.72,8.22-7.76,11.38C712.45,2161.52,717.01,2144.39,728.31,2131.43z"/>
</g>
</svg>
